<?xml version="1.0" encoding="UTF-8"?>
<svg id="Layer_1" data-name="Layer 1" xmlns="http://www.w3.org/2000/svg" version="1.1" viewBox="0 0 800 800">
  <defs>
    <style>
      .cls-1 {
        fill: #946c4b;
        stroke-width: 0px;
      }
    </style>
  </defs>
  <path class="cls-1" d="M632.8,82C577.8,29.1,501.6,0,418.3,0,291,0,212.7,52.2,169.5,95.9c-53.3,53.9-83.9,125.5-83.9,196.5s37.2,157.4,99.6,182.8c4.2,1.7,8.4,2.6,12.5,2.6,13.2,0,23.6-8.6,27.2-22.4,2.1-7.9,7-27.5,9.1-36,4.5-16.8.9-24.8-9-36.5-18-21.3-26.4-46.6-26.4-79.4,0-97.6,72.7-201.3,207.3-201.3s173.2,60.7,173.2,158.5-13.3,118.8-37.4,160.9c-16.8,29.2-46.3,64.1-91.5,64.1s-37.2-8-48.3-22.1c-10.5-13.3-13.9-30.4-9.7-48.2,4.8-20.2,11.3-41.2,17.5-61.5,11.5-37.1,22.3-72.2,22.3-100.2,0-47.9-29.4-80-73.2-80s-99.2,56.5-99.2,128.7,9.4,61.9,13.7,72c-7,29.7-48.7,206.3-56.6,239.6-4.6,19.4-32.1,173,13.5,185.2,51.2,13.8,97-135.8,101.6-152.7,3.8-13.7,17-65.7,25.1-97.6,24.7,23.8,64.5,39.9,103.2,39.9,73,0,138.6-32.8,184.8-92.5,44.8-57.8,69.5-138.5,69.5-227,0-69.2-29.7-137.5-81.5-187.2Z"/>
</svg>