<?xml version="1.0" encoding="UTF-8"?>
<svg id="Ebene_1" data-name="Ebene 1" xmlns="http://www.w3.org/2000/svg" version="1.1" viewBox="0 0 800 800">
  <defs>
    <style>
      .cls-1 {
        fill: #946c4b;
        stroke-width: 0px;
      }
    </style>
  </defs>
  <path class="cls-1" d="M400,0C179.2,0,0,179.2,0,400s179.2,400,400,400,400-179.2,400-400S620.8,0,400,0ZM784,400c0,13.6-.8,26.4-2.4,39.2l-68-8c.8-10.4,1.7-20.8,1.7-31.2s-.8-20-1.7-29.6l68-8c2.4,12.8,2.4,24.8,2.4,37.6h0ZM16,400c0-12.8.8-25.6,1.6-38.4l68,8c-.8,10.4-1.6,20-1.6,30.4s.8,20,1.6,30.4l-68,8c-1.6-12.8-1.6-25.6-1.6-38.4ZM698.4,296.8l64-24c8.8,24,14.4,48.8,18.4,74.4l-68,8c-3.2-20-8-40-14.4-58.4h0ZM700,400c0,20-2.4,39.2-5.6,58.4l-67.2-15.2c2.4-13.6,4-28,4-43.2s-1.6-30.4-4-44.8l67.2-15.2c3.9,19.2,5.6,39.2,5.6,60ZM400,615.2c-118.8,0-215.2-96.4-215.2-215.2,0-118.8,96.4-215.2,215.2-215.2,118.8,0,215.2,96.4,215.2,215.2.3,118.6-95.7,214.9-214.3,215.2h-.9ZM407.2,700v-68.8c29.5-1,58.5-7.5,85.6-19.2l29.6,62.4c-36.3,16.1-75.5,24.7-115.2,25.6h0ZM276,673.6l30.4-62.4c26.4,12,55.2,19.2,85.6,20v68.8c-40.1-.8-79.5-9.8-116-26.4h0ZM100,400c0-20.8,2.4-40.8,6.4-60.8l67.2,15.2c-3.3,15-4.9,30.3-4.8,45.6,0,14.4,1.6,28.8,4,42.4l-67.2,15.2c-3.9-18.9-5.8-38.2-5.6-57.6ZM392,100v68.8c-29.2,1-58,7.5-84.8,19.2l-29.6-62.4c36.1-15.9,75-24.6,114.4-25.6ZM523.2,126.4l-30.4,62.4c-27-12.1-56.1-18.6-85.6-19.2v-68.8c41.6,0,80.8,9.6,116,25.6ZM692.8,281.6c-7.7-18.7-17.1-36.6-28-53.6l56-38.4c13.6,21.6,25.6,44,35.2,68l-63.2,24ZM690.4,324.8l-67.3,15.2c-7.7-28.3-20.7-54.9-38.4-78.4l54.4-43.2c24,32,41.6,67.2,51.2,106.4ZM575.2,249.6c-19.1-22.2-42.1-40.7-68-54.4l30.4-62.4c35.2,18.3,66.4,43.3,92,73.6l-54.4,43.2ZM555.2,124.8l32-60.8c22.4,12.8,43.2,27.2,63.2,44l-45.6,52c-15.4-13.4-32-25.1-49.6-35.2h0ZM541.6,117.6c-18-8.9-36.7-16.1-56-21.6l16.8-66.4c24.8,7.2,48.8,16,72,28l-32.8,60ZM469.6,92c-20-4.8-40-7.2-60.8-8V16c26.4.8,52.8,4,77.6,9.6l-16.8,66.4h0ZM393.6,84c-20.2.7-40.2,3.1-60,7.2l-16-66.4c24-5.6,49.6-8.8,76-8.8v68.1h0ZM317.6,95.2c-19.5,5.6-38.5,12.8-56.8,21.6l-32-60.8c23-11.4,47.2-20.5,72-27.2l16.8,66.4ZM247.2,124c-17.6,9.8-34.2,21.3-49.6,34.4l-45.6-51.2c20-16.8,40.8-31.2,63.2-44l32,60.8h0ZM263.2,132.8l29.6,62.4c-26.4,13.6-48.8,32-68,53.6l-53.6-43.2c25.8-29.8,57-54.5,92-72.8h0ZM161.6,218.4l53.6,43.2c-17.7,23.5-30.7,50.1-38.4,78.4l-67.2-15.2c10.4-40,28-76,52-106.4h0ZM108,280l-64-24c9.6-24,21.6-47.2,36-68l56,39.2c-11.4,16.5-20.8,34.2-28,52.8ZM102.4,295.2c-6.4,19.2-12,38.4-14.4,59.2l-68-7.9c4-25.6,9.6-51.2,18.4-75.2l64,24ZM87.2,445.6c3.2,20,8,40,14.4,59.2l-64,24c-9-24.3-15.2-49.5-18.4-75.2l68-8ZM108,519.2c8,19.2,17.6,36.8,28,53.6l-56,38.4c-14.5-21-26.6-43.5-36-67.2l64-24.8h0ZM108.8,472.8l67.2-15.2c7.2,28.8,20.8,56,37.6,79.2l-53.6,43.2c-24.2-31.9-41.6-68.4-51.2-107.2ZM223.2,548.8c19.2,22.4,42.4,41.6,68.8,55.2l-30.4,62.4c-35.4-18.6-67-43.8-92.8-74.4l54.4-43.2ZM247.2,676l-32,60.8c-22.5-12.5-43.7-27.3-63.2-44l45.6-51.2c15.2,13.6,31.2,24.8,49.6,34.4h0ZM260.8,683.2c17.6,8.8,36.8,16,56.8,21.6l-16.8,66.4c-24.9-6.5-49-15.6-72-27.2l32-60.8h0ZM332.8,708.8c19.2,4,39.2,6.4,60,7.2v68c-25.8-.9-51.5-3.8-76.8-8.8l16.8-66.4h0ZM408.8,716c20.2-.7,40.2-3.1,60-7.2l16,66.4c-25,5.6-50.4,8.8-76,9.6v-68.7ZM484,704.8c19.5-5.5,38.5-12.7,56.8-21.6l32,60.8c-22.9,11.7-47.1,20.8-72,27.2l-16.8-66.4h0ZM553.6,676c17.6-9.6,34.4-21.6,49.6-34.4l45.6,51.2c-19.6,16.7-40.8,31.5-63.2,44l-32-60.8h0ZM537.6,667.2l-29.6-62.4c26.3-13.8,49.6-32.6,68.8-55.2l53.5,43.2c-25.9,30.3-57.4,55.6-92.7,74.4ZM640,580.8l-53.6-43.2c17.7-23.6,30.5-50.6,37.6-79.2l67.2,15.2c-10.4,38.6-27.7,74.9-51.3,107.2h0ZM692,520l64,24c-9.6,24-21.6,46.4-36,68l-56.1-39.2c11.2-16.8,20.8-34.4,28-52.8ZM697.6,504.8c6.4-18.4,11.2-38.4,14.4-58.4l68,8c-3.7,25.4-9.8,50.3-18.4,74.4l-64-24h0ZM712.8,176.8l-56,38.4c-11.9-16.3-25.3-31.6-40-45.6l45.6-51.2c18.4,18.4,35.2,37.6,50.4,58.4ZM140,117.6l45.6,51.2c-15.2,13.6-28,28.8-40,45.6l-56-39.2c14.4-21.2,31.3-40.5,50.4-57.6h0ZM88.8,624.8l56-38.4c12,16,25.6,31.2,40,45.6l-45.6,51.2c-18.3-18.2-35.1-37.7-50.4-58.4h0ZM660.8,682.4l-45.6-51.2c14.4-13.6,28-28.8,40-44.8l56.1,39.2c-15.2,20-32,39.2-50.4,56.8h0Z"/>
</svg>